<mxfile host="app.diagrams.net" modified="2022-01-03T20:41:55.957Z" agent="5.0 (Windows NT 6.3; Win64; x64) AppleWebKit/537.36 (KHTML, like Gecko) Chrome/96.0.4664.110 Safari/537.36" etag="mZ_ZYJt8pcFJwGY9zNHZ" version="16.1.4" type="github">
  <diagram id="IWP_otUKZXOT2SH1KZOF" name="Page-1">
    <mxGraphModel dx="1695" dy="464" grid="1" gridSize="10" guides="1" tooltips="1" connect="1" arrows="1" fold="1" page="1" pageScale="1" pageWidth="827" pageHeight="1169" math="0" shadow="0">
      <root>
        <mxCell id="0" />
        <mxCell id="1" parent="0" />
        <mxCell id="R2NUNEbPZyIsc4QaqQx6-1" value="LEAP YEAR DIAGRAM" style="rounded=1;whiteSpace=wrap;html=1;" vertex="1" parent="1">
          <mxGeometry x="-110" y="10" width="120" height="60" as="geometry" />
        </mxCell>
        <mxCell id="R2NUNEbPZyIsc4QaqQx6-2" value="" style="endArrow=classic;html=1;rounded=0;exitX=0.5;exitY=1;exitDx=0;exitDy=0;" edge="1" parent="1" source="R2NUNEbPZyIsc4QaqQx6-1">
          <mxGeometry width="50" height="50" relative="1" as="geometry">
            <mxPoint x="-40" y="420" as="sourcePoint" />
            <mxPoint x="-50" y="130" as="targetPoint" />
          </mxGeometry>
        </mxCell>
        <mxCell id="R2NUNEbPZyIsc4QaqQx6-3" value="Is it divisible by 4?" style="rhombus;whiteSpace=wrap;html=1;" vertex="1" parent="1">
          <mxGeometry x="-110" y="140" width="120" height="80" as="geometry" />
        </mxCell>
        <mxCell id="R2NUNEbPZyIsc4QaqQx6-4" value="No" style="endArrow=classic;html=1;rounded=0;exitX=0;exitY=0.5;exitDx=0;exitDy=0;" edge="1" parent="1">
          <mxGeometry relative="1" as="geometry">
            <mxPoint x="-109" y="180" as="sourcePoint" />
            <mxPoint x="-199" y="260" as="targetPoint" />
            <Array as="points">
              <mxPoint x="-199" y="180" />
            </Array>
          </mxGeometry>
        </mxCell>
        <mxCell id="R2NUNEbPZyIsc4QaqQx6-5" value="No" style="edgeLabel;resizable=0;html=1;align=center;verticalAlign=middle;" connectable="0" vertex="1" parent="R2NUNEbPZyIsc4QaqQx6-4">
          <mxGeometry relative="1" as="geometry" />
        </mxCell>
        <mxCell id="R2NUNEbPZyIsc4QaqQx6-6" value="" style="endArrow=classic;html=1;rounded=0;exitX=1;exitY=0.5;exitDx=0;exitDy=0;" edge="1" parent="1" source="R2NUNEbPZyIsc4QaqQx6-3">
          <mxGeometry relative="1" as="geometry">
            <mxPoint x="200" y="180" as="sourcePoint" />
            <mxPoint x="110" y="260" as="targetPoint" />
            <Array as="points">
              <mxPoint x="110" y="180" />
            </Array>
          </mxGeometry>
        </mxCell>
        <mxCell id="R2NUNEbPZyIsc4QaqQx6-7" value="Yes" style="edgeLabel;resizable=0;html=1;align=center;verticalAlign=middle;" connectable="0" vertex="1" parent="R2NUNEbPZyIsc4QaqQx6-6">
          <mxGeometry relative="1" as="geometry">
            <mxPoint x="-20" as="offset" />
          </mxGeometry>
        </mxCell>
        <mxCell id="R2NUNEbPZyIsc4QaqQx6-8" value="Not a leap year" style="rounded=1;whiteSpace=wrap;html=1;fillColor=#f8cecc;strokeColor=#b85450;" vertex="1" parent="1">
          <mxGeometry x="-260" y="260" width="120" height="60" as="geometry" />
        </mxCell>
        <mxCell id="R2NUNEbPZyIsc4QaqQx6-10" value="Is it divisible by 100?" style="rhombus;whiteSpace=wrap;html=1;" vertex="1" parent="1">
          <mxGeometry x="50" y="260" width="120" height="80" as="geometry" />
        </mxCell>
        <mxCell id="R2NUNEbPZyIsc4QaqQx6-11" value="No" style="endArrow=classic;html=1;rounded=0;exitX=0;exitY=0.5;exitDx=0;exitDy=0;" edge="1" parent="1">
          <mxGeometry relative="1" as="geometry">
            <mxPoint x="45.5" y="300" as="sourcePoint" />
            <mxPoint x="-44.5" y="380" as="targetPoint" />
            <Array as="points">
              <mxPoint x="-44.5" y="300" />
            </Array>
          </mxGeometry>
        </mxCell>
        <mxCell id="R2NUNEbPZyIsc4QaqQx6-12" value="No" style="edgeLabel;resizable=0;html=1;align=center;verticalAlign=middle;" connectable="0" vertex="1" parent="R2NUNEbPZyIsc4QaqQx6-11">
          <mxGeometry relative="1" as="geometry" />
        </mxCell>
        <mxCell id="R2NUNEbPZyIsc4QaqQx6-13" value="" style="endArrow=classic;html=1;rounded=0;exitX=1;exitY=0.5;exitDx=0;exitDy=0;" edge="1" parent="1">
          <mxGeometry relative="1" as="geometry">
            <mxPoint x="164.5" y="300" as="sourcePoint" />
            <mxPoint x="264.5" y="380" as="targetPoint" />
            <Array as="points">
              <mxPoint x="264.5" y="300" />
            </Array>
          </mxGeometry>
        </mxCell>
        <mxCell id="R2NUNEbPZyIsc4QaqQx6-14" value="Yes" style="edgeLabel;resizable=0;html=1;align=center;verticalAlign=middle;" connectable="0" vertex="1" parent="R2NUNEbPZyIsc4QaqQx6-13">
          <mxGeometry relative="1" as="geometry">
            <mxPoint x="-20" as="offset" />
          </mxGeometry>
        </mxCell>
        <mxCell id="R2NUNEbPZyIsc4QaqQx6-15" value="Leap year" style="rounded=1;whiteSpace=wrap;html=1;fillColor=#d5e8d4;strokeColor=#82b366;" vertex="1" parent="1">
          <mxGeometry x="-100" y="390" width="120" height="60" as="geometry" />
        </mxCell>
        <mxCell id="R2NUNEbPZyIsc4QaqQx6-16" value="Is it divisible by 400?" style="rhombus;whiteSpace=wrap;html=1;" vertex="1" parent="1">
          <mxGeometry x="205" y="388" width="120" height="80" as="geometry" />
        </mxCell>
        <mxCell id="R2NUNEbPZyIsc4QaqQx6-17" value="No" style="endArrow=classic;html=1;rounded=0;exitX=0;exitY=0.5;exitDx=0;exitDy=0;" edge="1" parent="1">
          <mxGeometry relative="1" as="geometry">
            <mxPoint x="200.5" y="430" as="sourcePoint" />
            <mxPoint x="110.5" y="510" as="targetPoint" />
            <Array as="points">
              <mxPoint x="110.5" y="430" />
            </Array>
          </mxGeometry>
        </mxCell>
        <mxCell id="R2NUNEbPZyIsc4QaqQx6-18" value="No" style="edgeLabel;resizable=0;html=1;align=center;verticalAlign=middle;" connectable="0" vertex="1" parent="R2NUNEbPZyIsc4QaqQx6-17">
          <mxGeometry relative="1" as="geometry" />
        </mxCell>
        <mxCell id="R2NUNEbPZyIsc4QaqQx6-19" value="" style="endArrow=classic;html=1;rounded=0;exitX=1;exitY=0.5;exitDx=0;exitDy=0;" edge="1" parent="1">
          <mxGeometry relative="1" as="geometry">
            <mxPoint x="319.5" y="430" as="sourcePoint" />
            <mxPoint x="419.5" y="510" as="targetPoint" />
            <Array as="points">
              <mxPoint x="419.5" y="430" />
            </Array>
          </mxGeometry>
        </mxCell>
        <mxCell id="R2NUNEbPZyIsc4QaqQx6-20" value="Yes" style="edgeLabel;resizable=0;html=1;align=center;verticalAlign=middle;" connectable="0" vertex="1" parent="R2NUNEbPZyIsc4QaqQx6-19">
          <mxGeometry relative="1" as="geometry">
            <mxPoint x="-20" as="offset" />
          </mxGeometry>
        </mxCell>
        <mxCell id="R2NUNEbPZyIsc4QaqQx6-21" value="Leap year" style="rounded=1;whiteSpace=wrap;html=1;fillColor=#d5e8d4;strokeColor=#82b366;" vertex="1" parent="1">
          <mxGeometry x="360" y="520" width="120" height="60" as="geometry" />
        </mxCell>
        <mxCell id="R2NUNEbPZyIsc4QaqQx6-22" value="Not a leap year" style="rounded=1;whiteSpace=wrap;html=1;fillColor=#f8cecc;strokeColor=#b85450;" vertex="1" parent="1">
          <mxGeometry x="50" y="520" width="120" height="60" as="geometry" />
        </mxCell>
      </root>
    </mxGraphModel>
  </diagram>
</mxfile>
